<svg width="85" height="58" viewBox="0 0 85 58" fill="none" xmlns="http://www.w3.org/2000/svg">
<g filter="url(#filter0_d_890_3367)">
<rect x="5.96234" y="20.135" width="39.3036" height="26.2024" rx="2.62024" transform="rotate(-15 5.96234 20.135)" fill="url(#paint0_linear_890_3367)"/>
<rect x="6.16291" y="20.2508" width="38.9761" height="25.8749" rx="2.45647" transform="rotate(-15 6.16291 20.2508)" stroke="url(#paint1_linear_890_3367)" stroke-width="0.32753"/>
<path d="M25.8423 23.4612C26.0512 21.7098 27.9264 20.9396 29.1415 21.2209C30.3565 21.5022 31.0329 22.5853 31.0117 23.7715C30.9904 24.9577 29.8538 25.8444 29.0022 26.6625C27.9377 27.6852 27.4724 29.266 28.0549 30.659" stroke="#34D399" stroke-width="1.96518" stroke-linecap="round"/>
<path d="M26.6882 33.6231C27.5982 34.3759 29.0569 34.1089 29.7801 33.5205" stroke="#10B981" stroke-width="1.96518" stroke-linecap="round"/>
<path d="M33.1476 27.9464C33.3349 28.6453 32.9201 29.3637 32.2212 29.5509C31.5223 29.7382 30.8039 29.3235 30.6167 28.6245C30.4294 27.9256 30.8442 27.2073 31.5431 27.02C32.242 26.8327 32.9604 27.2475 33.1476 27.9464Z" fill="#10B981"/>
<path d="M26.142 27.1108C26.3293 27.8097 25.9145 28.5281 25.2156 28.7154C24.5167 28.9027 23.7983 28.4879 23.6111 27.789C23.4238 27.0901 23.8385 26.3717 24.5375 26.1844C25.2364 25.9972 25.9547 26.4119 26.142 27.1108Z" fill="#10B981"/>
</g>
<g filter="url(#filter1_d_890_3367)">
<rect x="34.4176" y="9.14368" width="44.2165" height="29.4776" rx="2.94776" transform="rotate(10 34.4176 9.14368)" fill="url(#paint2_linear_890_3367)"/>
<rect x="34.567" y="9.35711" width="43.848" height="29.1091" rx="2.76353" transform="rotate(10 34.567 9.35711)" stroke="url(#paint3_linear_890_3367)" stroke-width="0.368471"/>
<path d="M53.1058 21.9868C54.1515 20.3004 56.4296 20.4067 57.5348 21.2712C58.6399 22.1356 58.8146 23.5617 58.2289 24.7609C57.6433 25.9602 56.0628 26.3239 54.8055 26.7532C53.234 27.2899 52.008 28.6804 51.9396 30.3776" stroke="#34D399" stroke-width="2.21082" stroke-linecap="round"/>
<path d="M49.1368 32.75C49.7066 33.9501 51.3209 34.3715 52.338 34.1154" stroke="#10B981" stroke-width="2.21082" stroke-linecap="round"/>
<path d="M58.4218 30.0331C58.2804 30.8347 57.516 31.37 56.7143 31.2287C55.9127 31.0873 55.3774 30.3229 55.5188 29.5212C55.6601 28.7196 56.4246 28.1843 57.2262 28.3257C58.0278 28.467 58.5631 29.2315 58.4218 30.0331Z" fill="#10B981"/>
<path d="M51.6762 25.8504C51.5348 26.6521 50.7704 27.1874 49.9687 27.046C49.1671 26.9047 48.6318 26.1402 48.7732 25.3386C48.9145 24.5369 49.679 24.0017 50.4806 24.143C51.2822 24.2844 51.8175 25.0488 51.6762 25.8504Z" fill="#10B981"/>
</g>
<g filter="url(#filter2_d_890_3367)">
<rect x="17.0165" y="7.28442" width="49.1295" height="32.753" rx="3.2753" transform="rotate(-5 17.0165 7.28442)" fill="url(#paint4_linear_890_3367)"/>
<rect x="17.2382" y="7.47051" width="48.7201" height="32.3436" rx="3.07059" transform="rotate(-5 17.2382 7.47051)" stroke="url(#paint5_linear_890_3367)" stroke-width="0.409412"/>
<path d="M40.7669 15.6941C41.4042 13.5835 43.8798 13.0424 45.3145 13.6524C46.7492 14.2623 47.3467 15.7426 47.0631 17.1981C46.7795 18.6537 45.1878 19.4985 43.9619 20.3208C42.4295 21.3487 41.5136 23.1937 41.9283 25.0349" stroke="#34D399" stroke-width="2.45647" stroke-linecap="round"/>
<path d="M39.6025 28.3871C40.5592 29.5113 42.4129 29.4993 43.4308 28.9319" stroke="#10B981" stroke-width="2.45647" stroke-linecap="round"/>
<path d="M48.7862 22.8011C48.8651 23.7021 48.1986 24.4964 47.2976 24.5752C46.3965 24.654 45.6022 23.9875 45.5234 23.0865C45.4446 22.1855 46.1111 21.3912 47.0121 21.3124C47.9131 21.2336 48.7074 21.9001 48.7862 22.8011Z" fill="#10B981"/>
<path d="M40.3437 20.2519C40.4225 21.1529 39.756 21.9472 38.855 22.026C37.954 22.1049 37.1597 21.4384 37.0808 20.5374C37.002 19.6364 37.6685 18.842 38.5695 18.7632C39.4705 18.6844 40.2648 19.3509 40.3437 20.2519Z" fill="#10B981"/>
</g>
<defs>
<filter id="filter0_d_890_3367" x="-0.588258" y="7.34228" width="57.8472" height="48.5833" filterUnits="userSpaceOnUse" color-interpolation-filters="sRGB">
<feFlood flood-opacity="0" result="BackgroundImageFix"/>
<feColorMatrix in="SourceAlpha" type="matrix" values="0 0 0 0 0 0 0 0 0 0 0 0 0 0 0 0 0 0 127 0" result="hardAlpha"/>
<feOffset dy="3.93036"/>
<feGaussianBlur stdDeviation="3.2753"/>
<feComposite in2="hardAlpha" operator="out"/>
<feColorMatrix type="matrix" values="0 0 0 0 0.0627451 0 0 0 0 0.72549 0 0 0 0 0.505882 0 0 0 1 0"/>
<feBlend mode="normal" in2="BackgroundImageFix" result="effect1_dropShadow_890_3367"/>
<feBlend mode="normal" in="SourceGraphic" in2="effect1_dropShadow_890_3367" result="shape"/>
</filter>
<filter id="filter1_d_890_3367" x="21.9294" y="6.19591" width="63.4023" height="51.4467" filterUnits="userSpaceOnUse" color-interpolation-filters="sRGB">
<feFlood flood-opacity="0" result="BackgroundImageFix"/>
<feColorMatrix in="SourceAlpha" type="matrix" values="0 0 0 0 0 0 0 0 0 0 0 0 0 0 0 0 0 0 127 0" result="hardAlpha"/>
<feOffset dy="4.42165"/>
<feGaussianBlur stdDeviation="3.68471"/>
<feComposite in2="hardAlpha" operator="out"/>
<feColorMatrix type="matrix" values="0 0 0 0 0.0627451 0 0 0 0 0.72549 0 0 0 0 0.505882 0 0 0 1 0"/>
<feBlend mode="normal" in2="BackgroundImageFix" result="effect1_dropShadow_890_3367"/>
<feBlend mode="normal" in="SourceGraphic" in2="effect1_dropShadow_890_3367" result="shape"/>
</filter>
<filter id="filter2_d_890_3367" x="8.82823" y="-0.272798" width="68.1737" height="53.2868" filterUnits="userSpaceOnUse" color-interpolation-filters="sRGB">
<feFlood flood-opacity="0" result="BackgroundImageFix"/>
<feColorMatrix in="SourceAlpha" type="matrix" values="0 0 0 0 0 0 0 0 0 0 0 0 0 0 0 0 0 0 127 0" result="hardAlpha"/>
<feOffset dy="4.91295"/>
<feGaussianBlur stdDeviation="4.09412"/>
<feComposite in2="hardAlpha" operator="out"/>
<feColorMatrix type="matrix" values="0 0 0 0 0.0627451 0 0 0 0 0.72549 0 0 0 0 0.505882 0 0 0 1 0"/>
<feBlend mode="normal" in2="BackgroundImageFix" result="effect1_dropShadow_890_3367"/>
<feBlend mode="normal" in="SourceGraphic" in2="effect1_dropShadow_890_3367" result="shape"/>
</filter>
<linearGradient id="paint0_linear_890_3367" x1="25.6141" y1="20.135" x2="25.6141" y2="46.3374" gradientUnits="userSpaceOnUse">
<stop stop-color="#6EE7B7"/>
<stop offset="1" stop-color="white"/>
</linearGradient>
<linearGradient id="paint1_linear_890_3367" x1="25.6141" y1="20.135" x2="25.6141" y2="46.3374" gradientUnits="userSpaceOnUse">
<stop stop-color="#D1FAE5"/>
<stop offset="1" stop-color="#D1FAE5" stop-opacity="0"/>
</linearGradient>
<linearGradient id="paint2_linear_890_3367" x1="56.5258" y1="9.14368" x2="56.5258" y2="38.6213" gradientUnits="userSpaceOnUse">
<stop stop-color="#6EE7B7"/>
<stop offset="1" stop-color="white"/>
</linearGradient>
<linearGradient id="paint3_linear_890_3367" x1="56.5258" y1="9.14368" x2="56.5258" y2="38.6213" gradientUnits="userSpaceOnUse">
<stop stop-color="#D1FAE5"/>
<stop offset="1" stop-color="#D1FAE5" stop-opacity="0"/>
</linearGradient>
<linearGradient id="paint4_linear_890_3367" x1="41.5812" y1="7.28442" x2="41.5812" y2="40.0374" gradientUnits="userSpaceOnUse">
<stop stop-color="#6EE7B7"/>
<stop offset="1" stop-color="white"/>
</linearGradient>
<linearGradient id="paint5_linear_890_3367" x1="41.5812" y1="7.28442" x2="41.5812" y2="40.0374" gradientUnits="userSpaceOnUse">
<stop stop-color="#D1FAE5"/>
<stop offset="1" stop-color="#D1FAE5" stop-opacity="0"/>
</linearGradient>
</defs>
</svg>
